# xmcd
#
# Track frame offsets: 
#        150
#        17125
#        33390
#        48656
#        79464
#        110144
#        125098
#        139338
#        152666
#        167287
#        181498
#        199668
#        216767
#        233476
#        248871
#        265972
#        283282
#        298441
#        314410
#        333002
#
# Disc length: 4675 seconds
#
# Revision: 3
# Processed by: cddbd v1.5.2PL0 Copyright (c) Steve Scherf et al.
# Submitted via: ExactAudioCopy v0.90b4
#
DISCID=36124114
DTITLE=Various Artist - Bravo Hits 30 CD 1
DYEAR=2000
DGENRE=Pop
TTITLE0=Loona - Latino lover
TTITLE1=Tha Lawyer - I wanna Mmm...
TTITLE2=Marco da Silva - La bamba
TTITLE3=Dr. Motte and Westbam - Love Parade 2000
TTITLE4=Manu Chao - Bongo bong (Dance version)
TTITLE5=Alex - Ich will nur dich
TTITLE6=Passion Fruit - Sun fun baby
TTITLE7=Bellini - Arriba allez
TTITLE8=French Affair - Poison
TTITLE9=Vengaboys - Uncle John from Jamaica
TTITLE10=La Bouche - All i want
TTITLE11=Scooter - I´m your Pusher
TTITLE12=Kai Tracid - Tiefenrausch (The deep blue)
TTITLE13=Paffendorf - Everybody scream
TTITLE14=Lara Fabian - I will love again
TTITLE15=A*Teens - Dancing queen
TTITLE16=Blümchen - Ist deine Liebe echt?
TTITLE17=Britney Spears - Oops! ... I did it again
TTITLE18=Prezioso frat. Marvin - Voices
TTITLE19=Boomfunk MC`s - Freestyler
EXTD=
EXTT0=
EXTT1=
EXTT2=
EXTT3=
EXTT4=
EXTT5=
EXTT6=
EXTT7=
EXTT8=
EXTT9=
EXTT10=
EXTT11=
EXTT12=
EXTT13=
EXTT14=
EXTT15=
EXTT16=
EXTT17=
EXTT18=
EXTT19=
PLAYORDER=
